<?xml version="1.0" encoding="UTF-8" standalone="no"?>
<!-- Created with Inkscape (http://www.inkscape.org/) -->

<svg
   width="1920"
   height="5000"
   viewBox="0 0 507.99999 1322.9167"
   version="1.1"
   id="svg5"
   inkscape:version="1.1.1 (3bf5ae0d25, 2021-09-20)"
   sodipodi:docname="back1.svg"
   xmlns:inkscape="http://www.inkscape.org/namespaces/inkscape"
   xmlns:sodipodi="http://sodipodi.sourceforge.net/DTD/sodipodi-0.dtd"
   xmlns:xlink="http://www.w3.org/1999/xlink"
   xmlns="http://www.w3.org/2000/svg"
   xmlns:svg="http://www.w3.org/2000/svg">
  <sodipodi:namedview
     id="namedview7"
     pagecolor="#ffffff"
     bordercolor="#666666"
     borderopacity="1.0"
     inkscape:pageshadow="2"
     inkscape:pageopacity="0.0"
     inkscape:pagecheckerboard="0"
     inkscape:document-units="px"
     showgrid="false"
     units="px"
     inkscape:zoom="2.5620932"
     inkscape:cx="505.25095"
     inkscape:cy="574.33509"
     inkscape:window-width="1920"
     inkscape:window-height="1017"
     inkscape:window-x="-8"
     inkscape:window-y="-8"
     inkscape:window-maximized="1"
     inkscape:current-layer="g2112" />
  <defs
     id="defs2">
    <linearGradient
       inkscape:collect="always"
       id="linearGradient34478">
      <stop
         style="stop-color:#ffffff;stop-opacity:1;"
         offset="0"
         id="stop34474" />
      <stop
         style="stop-color:#ffffff;stop-opacity:0;"
         offset="1"
         id="stop34476" />
    </linearGradient>
    <linearGradient
       inkscape:collect="always"
       id="linearGradient31987">
      <stop
         style="stop-color:#8e41ac;stop-opacity:1"
         offset="0"
         id="stop31983" />
      <stop
         style="stop-color:#f42e2e;stop-opacity:0.49803922"
         offset="0.49938726"
         id="stop32281" />
      <stop
         style="stop-color:#fac059;stop-opacity:1"
         offset="1"
         id="stop31985" />
    </linearGradient>
    <rect
       x="-362.20385"
       y="1423.8358"
       width="243.20488"
       height="72.953833"
       id="rect25191" />
    <linearGradient
       inkscape:collect="always"
       id="linearGradient11751">
      <stop
         style="stop-color:#ffffff;stop-opacity:1;"
         offset="0"
         id="stop11747" />
      <stop
         style="stop-color:#ffffff;stop-opacity:0;"
         offset="1"
         id="stop11749" />
    </linearGradient>
    <rect
       x="2042.1015"
       y="1463.2379"
       width="1573.692"
       height="984.76047"
       id="rect31098" />
    <rect
       x="2216.9373"
       y="1430.0807"
       width="1754.8152"
       height="930.4892"
       id="rect26884" />
    <linearGradient
       inkscape:collect="always"
       id="linearGradient24469">
      <stop
         style="stop-color:#ffffff;stop-opacity:1;"
         offset="0"
         id="stop24465" />
      <stop
         style="stop-color:#ffffff;stop-opacity:0;"
         offset="1"
         id="stop24467" />
    </linearGradient>
    <linearGradient
       inkscape:collect="always"
       id="linearGradient21453">
      <stop
         style="stop-color:#8e41ac;stop-opacity:1"
         offset="0"
         id="stop21449" />
      <stop
         style="stop-color:#f42e2e;stop-opacity:1"
         offset="0.52940279"
         id="stop21905" />
      <stop
         style="stop-color:#fac059;stop-opacity:1"
         offset="1"
         id="stop21451" />
    </linearGradient>
    <linearGradient
       inkscape:collect="always"
       id="linearGradient17076">
      <stop
         style="stop-color:#f16f26;stop-opacity:1"
         offset="0"
         id="stop17072" />
      <stop
         style="stop-color:#884e9c;stop-opacity:1"
         offset="1"
         id="stop17074" />
    </linearGradient>
    <filter
       inkscape:collect="always"
       style="color-interpolation-filters:sRGB"
       id="filter15207"
       x="-1.2"
       y="-1.2"
       width="3.4"
       height="3.4">
      <feGaussianBlur
         inkscape:collect="always"
         stdDeviation="2.9210021"
         id="feGaussianBlur15209" />
    </filter>
    <linearGradient
       inkscape:collect="always"
       xlink:href="#linearGradient17076"
       id="linearGradient17078"
       x1="-59.641125"
       y1="647.7987"
       x2="447.53074"
       y2="647.7987"
       gradientUnits="userSpaceOnUse"
       gradientTransform="translate(-1.1683489,-119.17158)" />
    <linearGradient
       inkscape:collect="always"
       xlink:href="#linearGradient17076"
       id="linearGradient18415"
       gradientUnits="userSpaceOnUse"
       gradientTransform="translate(-1.1683462,-119.17158)"
       x1="-59.641125"
       y1="647.7987"
       x2="447.53074"
       y2="647.7987" />
    <filter
       inkscape:collect="always"
       style="color-interpolation-filters:sRGB"
       id="filter18488"
       x="-0.011665059"
       y="-0.11398299"
       width="1.0233257"
       height="1.2282012">
      <feGaussianBlur
         inkscape:collect="always"
         stdDeviation="2.4414971"
         id="feGaussianBlur18490" />
    </filter>
    <linearGradient
       inkscape:collect="always"
       xlink:href="#linearGradient21453"
       id="linearGradient21455"
       x1="166.21484"
       y1="-59.277344"
       x2="208.55989"
       y2="26.782269"
       gradientUnits="userSpaceOnUse"
       gradientTransform="matrix(0.17676864,0,0,0.17676864,-71.900163,105.48811)" />
    <linearGradient
       inkscape:collect="always"
       xlink:href="#linearGradient21453"
       id="linearGradient23038"
       gradientUnits="userSpaceOnUse"
       gradientTransform="matrix(0.17676864,0,0,0.17676864,-71.900163,105.48811)"
       x1="166.21484"
       y1="-59.277344"
       x2="208.55989"
       y2="26.782269" />
    <filter
       inkscape:collect="always"
       style="color-interpolation-filters:sRGB"
       id="filter23042"
       x="-1.6800715"
       y="-0.93331128"
       width="4.3601429"
       height="2.8666226">
      <feGaussianBlur
         inkscape:collect="always"
         stdDeviation="6.1437511"
         id="feGaussianBlur23044" />
    </filter>
    <linearGradient
       inkscape:collect="always"
       xlink:href="#linearGradient24469"
       id="linearGradient24471"
       x1="-53.864182"
       y1="134.48979"
       x2="37.070084"
       y2="134.48979"
       gradientUnits="userSpaceOnUse" />
    <linearGradient
       inkscape:collect="always"
       xlink:href="#linearGradient11751"
       id="linearGradient11753"
       x1="-51.955193"
       y1="453.46206"
       x2="127.56271"
       y2="453.46206"
       gradientUnits="userSpaceOnUse" />
    <rect
       x="-362.20386"
       y="1423.8358"
       width="243.20488"
       height="72.953835"
       id="rect25191-4" />
    <filter
       inkscape:collect="always"
       style="color-interpolation-filters:sRGB"
       id="filter31691"
       x="-0.41733957"
       y="-2.7129948"
       width="1.8346791"
       height="6.4259896">
      <feGaussianBlur
         inkscape:collect="always"
         stdDeviation="19.783992"
         id="feGaussianBlur31693" />
    </filter>
    <linearGradient
       inkscape:collect="always"
       xlink:href="#linearGradient31987"
       id="linearGradient31989"
       x1="-359.46826"
       y1="1438.7865"
       x2="-246.72719"
       y2="1438.6484"
       gradientUnits="userSpaceOnUse" />
    <radialGradient
       inkscape:collect="always"
       xlink:href="#linearGradient34478"
       id="radialGradient34480"
       cx="282.07034"
       cy="332.3947"
       fx="282.07034"
       fy="332.3947"
       r="32.833427"
       gradientUnits="userSpaceOnUse" />
    <radialGradient
       inkscape:collect="always"
       xlink:href="#linearGradient34478"
       id="radialGradient34633"
       gradientUnits="userSpaceOnUse"
       cx="282.07034"
       cy="332.3947"
       fx="282.07034"
       fy="332.3947"
       r="32.833427" />
    <radialGradient
       inkscape:collect="always"
       xlink:href="#linearGradient34478"
       id="radialGradient34635"
       gradientUnits="userSpaceOnUse"
       cx="282.07034"
       cy="332.3947"
       fx="282.07034"
       fy="332.3947"
       r="32.833427" />
    <radialGradient
       inkscape:collect="always"
       xlink:href="#linearGradient34478"
       id="radialGradient34637"
       gradientUnits="userSpaceOnUse"
       cx="282.07034"
       cy="332.3947"
       fx="282.07034"
       fy="332.3947"
       r="32.833427" />
    <radialGradient
       inkscape:collect="always"
       xlink:href="#linearGradient34478"
       id="radialGradient34639"
       gradientUnits="userSpaceOnUse"
       cx="282.07034"
       cy="332.3947"
       fx="282.07034"
       fy="332.3947"
       r="32.833427" />
    <radialGradient
       inkscape:collect="always"
       xlink:href="#linearGradient34478"
       id="radialGradient34641"
       gradientUnits="userSpaceOnUse"
       cx="282.07034"
       cy="332.3947"
       fx="282.07034"
       fy="332.3947"
       r="32.833427" />
    <radialGradient
       inkscape:collect="always"
       xlink:href="#linearGradient34478"
       id="radialGradient34643"
       gradientUnits="userSpaceOnUse"
       cx="282.07034"
       cy="332.3947"
       fx="282.07034"
       fy="332.3947"
       r="32.833427" />
    <radialGradient
       inkscape:collect="always"
       xlink:href="#linearGradient34478"
       id="radialGradient34645"
       gradientUnits="userSpaceOnUse"
       cx="282.07034"
       cy="332.3947"
       fx="282.07034"
       fy="332.3947"
       r="32.833427" />
    <radialGradient
       inkscape:collect="always"
       xlink:href="#linearGradient34478"
       id="radialGradient34647"
       gradientUnits="userSpaceOnUse"
       cx="282.07034"
       cy="332.3947"
       fx="282.07034"
       fy="332.3947"
       r="32.833427" />
    <radialGradient
       inkscape:collect="always"
       xlink:href="#linearGradient34478"
       id="radialGradient34649"
       gradientUnits="userSpaceOnUse"
       cx="282.07034"
       cy="332.3947"
       fx="282.07034"
       fy="332.3947"
       r="32.833427" />
    <radialGradient
       inkscape:collect="always"
       xlink:href="#linearGradient34478"
       id="radialGradient34651"
       gradientUnits="userSpaceOnUse"
       cx="282.07034"
       cy="332.3947"
       fx="282.07034"
       fy="332.3947"
       r="32.833427" />
    <radialGradient
       inkscape:collect="always"
       xlink:href="#linearGradient34478"
       id="radialGradient34653"
       gradientUnits="userSpaceOnUse"
       cx="282.07034"
       cy="332.3947"
       fx="282.07034"
       fy="332.3947"
       r="32.833427" />
    <radialGradient
       inkscape:collect="always"
       xlink:href="#linearGradient34478"
       id="radialGradient34655"
       gradientUnits="userSpaceOnUse"
       cx="282.07034"
       cy="332.3947"
       fx="282.07034"
       fy="332.3947"
       r="32.833427" />
  </defs>
  <g
     inkscape:label="Layer 1"
     inkscape:groupmode="layer"
     id="layer1">
    <g
       id="g2112"
       transform="translate(60.754143,-79.447725)"
       style="opacity:1">
      <g
         id="g19415-1-9-4-5"
         transform="matrix(1.4967776,0,0,1.4967776,62.354674,-37.550213)"
         style="filter:url(#filter23042)">
        <path
           id="rect18802-3-4-1-3"
           style="opacity:1;fill:url(#linearGradient23038);fill-opacity:1;fill-rule:evenodd;stroke:none;stroke-width:0.583184;stroke-miterlimit:4;stroke-dasharray:none;stroke-opacity:1"
           d="m -42.518592,95.009732 c -0.223988,0 -0.448092,0.08593 -0.619726,0.257557 -0.343263,0.343264 -0.343263,0.895843 0,1.239107 l 6.402686,6.402684 -6.402686,6.40269 c -0.343263,0.34326 -0.343263,0.89584 0,1.2391 0.343266,0.34327 0.895844,0.34327 1.239108,0 l 7.02241,-7.02206 c 0.343265,-0.34327 0.343265,-0.89619 0,-1.23946 l -7.02241,-7.022061 c -0.171632,-0.171632 -0.395391,-0.257557 -0.619382,-0.257557 z" />
      </g>
      <circle
         style="opacity:0.0264228;fill:#ffffff;fill-opacity:1;fill-rule:evenodd;stroke:none;stroke-width:0.129928;stroke-miterlimit:4;stroke-dasharray:none;stroke-opacity:1"
         id="path846"
         cx="337.19321"
         cy="116.89986"
         r="2.9210021" />
      <circle
         style="opacity:0.0264228;fill:#ffffff;fill-opacity:1;fill-rule:evenodd;stroke:none;stroke-width:0.129928;stroke-miterlimit:4;stroke-dasharray:none;stroke-opacity:1"
         id="path846-9"
         cx="350.42224"
         cy="116.89986"
         r="2.9210021" />
      <circle
         style="opacity:0.0264228;fill:#ffffff;fill-opacity:1;fill-rule:evenodd;stroke:none;stroke-width:0.129928;stroke-miterlimit:4;stroke-dasharray:none;stroke-opacity:1"
         id="path846-9-1"
         cx="363.65143"
         cy="116.89994"
         r="2.9210021" />
      <circle
         style="opacity:0.0264228;fill:#ffffff;fill-opacity:1;fill-rule:evenodd;stroke:none;stroke-width:0.129928;stroke-miterlimit:4;stroke-dasharray:none;stroke-opacity:1"
         id="path846-3"
         cx="376.84988"
         cy="116.87531"
         r="2.9210021" />
      <circle
         style="opacity:0.0264228;fill:#ffffff;fill-opacity:1;fill-rule:evenodd;stroke:none;stroke-width:0.129928;stroke-miterlimit:4;stroke-dasharray:none;stroke-opacity:1"
         id="path846-9-6"
         cx="390.07892"
         cy="116.87531"
         r="2.9210021" />
      <circle
         style="opacity:0.0264228;fill:#ffffff;fill-opacity:1;fill-rule:evenodd;stroke:none;stroke-width:0.129928;stroke-miterlimit:4;stroke-dasharray:none;stroke-opacity:1"
         id="path846-9-1-8"
         cx="403.30811"
         cy="116.87538"
         r="2.9210021" />
      <circle
         style="opacity:0.0264228;fill:#ffffff;fill-opacity:1;fill-rule:evenodd;stroke:none;stroke-width:0.129928;stroke-miterlimit:4;stroke-dasharray:none;stroke-opacity:1"
         id="path846-1"
         cx="337.18585"
         cy="130.12056"
         r="2.9210021" />
      <circle
         style="opacity:0.0264228;fill:#ffffff;fill-opacity:1;fill-rule:evenodd;stroke:none;stroke-width:0.129928;stroke-miterlimit:4;stroke-dasharray:none;stroke-opacity:1"
         id="path846-9-7"
         cx="350.41489"
         cy="130.12056"
         r="2.9210021" />
      <circle
         style="opacity:0.0264228;fill:#ffffff;fill-opacity:1;fill-rule:evenodd;stroke:none;stroke-width:0.129928;stroke-miterlimit:4;stroke-dasharray:none;stroke-opacity:1"
         id="path846-9-1-6"
         cx="363.64407"
         cy="130.12065"
         r="2.9210021" />
      <circle
         style="opacity:0.0264228;fill:#ffffff;fill-opacity:1;fill-rule:evenodd;stroke:none;stroke-width:0.129928;stroke-miterlimit:4;stroke-dasharray:none;stroke-opacity:1"
         id="path846-3-3"
         cx="376.84253"
         cy="130.09604"
         r="2.9210021" />
      <circle
         style="opacity:0.0264228;fill:#ffffff;fill-opacity:1;fill-rule:evenodd;stroke:none;stroke-width:0.129928;stroke-miterlimit:4;stroke-dasharray:none;stroke-opacity:1"
         id="path846-9-6-0"
         cx="390.07156"
         cy="130.09604"
         r="2.9210021" />
      <circle
         style="opacity:0.0264228;fill:#ffffff;fill-opacity:1;fill-rule:evenodd;stroke:none;stroke-width:0.129928;stroke-miterlimit:4;stroke-dasharray:none;stroke-opacity:1"
         id="path846-9-1-8-8"
         cx="403.30075"
         cy="130.0961"
         r="2.9210021" />
      <circle
         style="opacity:0.0264228;fill:#ffffff;fill-opacity:1;fill-rule:evenodd;stroke:none;stroke-width:0.129928;stroke-miterlimit:4;stroke-dasharray:none;stroke-opacity:1"
         id="path846-16"
         cx="337.16354"
         cy="143.35847"
         r="2.9210021" />
      <circle
         style="opacity:0.0264228;fill:#ffffff;fill-opacity:1;fill-rule:evenodd;stroke:none;stroke-width:0.129928;stroke-miterlimit:4;stroke-dasharray:none;stroke-opacity:1"
         id="path846-9-9"
         cx="350.39258"
         cy="143.35847"
         r="2.9210021" />
      <circle
         style="opacity:0.0264228;fill:#ffffff;fill-opacity:1;fill-rule:evenodd;stroke:none;stroke-width:0.129928;stroke-miterlimit:4;stroke-dasharray:none;stroke-opacity:1"
         id="path846-9-1-7"
         cx="363.62177"
         cy="143.35855"
         r="2.9210021" />
      <circle
         style="opacity:0.0264228;fill:#ffffff;fill-opacity:1;fill-rule:evenodd;stroke:none;stroke-width:0.129928;stroke-miterlimit:4;stroke-dasharray:none;stroke-opacity:1"
         id="path846-3-0"
         cx="376.82022"
         cy="143.33392"
         r="2.9210021" />
      <circle
         style="opacity:0.0264228;fill:#ffffff;fill-opacity:1;fill-rule:evenodd;stroke:none;stroke-width:0.129928;stroke-miterlimit:4;stroke-dasharray:none;stroke-opacity:1"
         id="path846-9-6-5"
         cx="390.04926"
         cy="143.33392"
         r="2.9210021" />
      <circle
         style="opacity:0.0264228;fill:#ffffff;fill-opacity:1;fill-rule:evenodd;stroke:none;stroke-width:0.129928;stroke-miterlimit:4;stroke-dasharray:none;stroke-opacity:1"
         id="path846-9-1-8-2"
         cx="403.27844"
         cy="143.334"
         r="2.9210021" />
      <circle
         style="opacity:0.0264228;fill:#ffffff;fill-opacity:1;fill-rule:evenodd;stroke:none;stroke-width:0.129928;stroke-miterlimit:4;stroke-dasharray:none;stroke-opacity:1"
         id="path846-1-3"
         cx="337.15619"
         cy="156.57918"
         r="2.9210021" />
      <circle
         style="opacity:0.0264228;fill:#ffffff;fill-opacity:1;fill-rule:evenodd;stroke:none;stroke-width:0.129928;stroke-miterlimit:4;stroke-dasharray:none;stroke-opacity:1"
         id="path846-9-7-8"
         cx="350.38522"
         cy="156.57918"
         r="2.9210021" />
      <circle
         style="opacity:1;fill:#f42e2e;fill-opacity:0.956863;fill-rule:evenodd;stroke:none;stroke-width:0.129928;stroke-miterlimit:4;stroke-dasharray:none;stroke-opacity:1"
         id="path846-9-1-6-7"
         cx="363.61441"
         cy="156.57927"
         r="2.9210021" />
      <circle
         style="mix-blend-mode:normal;fill:#f42e2e;fill-opacity:0.956863;fill-rule:evenodd;stroke:none;stroke-width:0.129928;stroke-miterlimit:4;stroke-dasharray:none;stroke-opacity:1;filter:url(#filter15207)"
         id="path846-9-1-6-7-2"
         cx="363.6145"
         cy="156.57933"
         r="2.9210021" />
      <circle
         style="opacity:0.0264228;fill:#ffffff;fill-opacity:1;fill-rule:evenodd;stroke:none;stroke-width:0.129928;stroke-miterlimit:4;stroke-dasharray:none;stroke-opacity:1"
         id="path846-3-3-1"
         cx="376.81287"
         cy="156.55466"
         r="2.9210021" />
      <circle
         style="opacity:0.0264228;fill:#ffffff;fill-opacity:1;fill-rule:evenodd;stroke:none;stroke-width:0.129928;stroke-miterlimit:4;stroke-dasharray:none;stroke-opacity:1"
         id="path846-9-6-0-4"
         cx="390.0419"
         cy="156.55466"
         r="2.9210021" />
      <circle
         style="opacity:0.0264228;fill:#ffffff;fill-opacity:1;fill-rule:evenodd;stroke:none;stroke-width:0.129928;stroke-miterlimit:4;stroke-dasharray:none;stroke-opacity:1"
         id="path846-9-1-8-8-1"
         cx="403.27109"
         cy="156.55472"
         r="2.9210021" />
      <circle
         style="opacity:0.0264228;fill:#ffffff;fill-opacity:1;fill-rule:evenodd;stroke:none;stroke-width:0.129928;stroke-miterlimit:4;stroke-dasharray:none;stroke-opacity:1"
         id="path846-7"
         cx="337.16409"
         cy="169.8004"
         r="2.9210021" />
      <circle
         style="opacity:0.0264228;fill:#ffffff;fill-opacity:1;fill-rule:evenodd;stroke:none;stroke-width:0.129928;stroke-miterlimit:4;stroke-dasharray:none;stroke-opacity:1"
         id="path846-9-77"
         cx="350.39313"
         cy="169.8004"
         r="2.9210021" />
      <circle
         style="opacity:0.0264228;fill:#ffffff;fill-opacity:1;fill-rule:evenodd;stroke:none;stroke-width:0.129928;stroke-miterlimit:4;stroke-dasharray:none;stroke-opacity:1"
         id="path846-9-1-84"
         cx="363.62231"
         cy="169.80049"
         r="2.9210021" />
      <circle
         style="opacity:0.0264228;fill:#ffffff;fill-opacity:1;fill-rule:evenodd;stroke:none;stroke-width:0.129928;stroke-miterlimit:4;stroke-dasharray:none;stroke-opacity:1"
         id="path846-3-30"
         cx="376.82077"
         cy="169.77586"
         r="2.9210021" />
      <circle
         style="opacity:0.0264228;fill:#ffffff;fill-opacity:1;fill-rule:evenodd;stroke:none;stroke-width:0.129928;stroke-miterlimit:4;stroke-dasharray:none;stroke-opacity:1"
         id="path846-9-6-8"
         cx="390.0498"
         cy="169.77586"
         r="2.9210021" />
      <circle
         style="opacity:0.0264228;fill:#ffffff;fill-opacity:1;fill-rule:evenodd;stroke:none;stroke-width:0.129928;stroke-miterlimit:4;stroke-dasharray:none;stroke-opacity:1"
         id="path846-9-1-8-6"
         cx="403.27899"
         cy="169.77592"
         r="2.9210021" />
      <circle
         style="opacity:0.0264228;fill:#ffffff;fill-opacity:1;fill-rule:evenodd;stroke:none;stroke-width:0.129928;stroke-miterlimit:4;stroke-dasharray:none;stroke-opacity:1"
         id="path846-1-0"
         cx="337.15674"
         cy="183.0211"
         r="2.9210021" />
      <circle
         style="opacity:0.0264228;fill:#ffffff;fill-opacity:1;fill-rule:evenodd;stroke:none;stroke-width:0.129928;stroke-miterlimit:4;stroke-dasharray:none;stroke-opacity:1"
         id="path846-9-7-89"
         cx="350.38577"
         cy="183.0211"
         r="2.9210021" />
      <circle
         style="opacity:0.0264228;fill:#ffffff;fill-opacity:1;fill-rule:evenodd;stroke:none;stroke-width:0.129928;stroke-miterlimit:4;stroke-dasharray:none;stroke-opacity:1"
         id="path846-9-1-6-6"
         cx="363.61496"
         cy="183.02119"
         r="2.9210021" />
      <circle
         style="opacity:0.0264228;fill:#ffffff;fill-opacity:1;fill-rule:evenodd;stroke:none;stroke-width:0.129928;stroke-miterlimit:4;stroke-dasharray:none;stroke-opacity:1"
         id="path846-3-3-4"
         cx="376.81342"
         cy="182.99658"
         r="2.9210021" />
      <circle
         style="opacity:0.0264228;fill:#ffffff;fill-opacity:1;fill-rule:evenodd;stroke:none;stroke-width:0.129928;stroke-miterlimit:4;stroke-dasharray:none;stroke-opacity:1"
         id="path846-9-6-0-1"
         cx="390.04245"
         cy="182.99658"
         r="2.9210021" />
      <circle
         style="opacity:0.0264228;fill:#ffffff;fill-opacity:1;fill-rule:evenodd;stroke:none;stroke-width:0.129928;stroke-miterlimit:4;stroke-dasharray:none;stroke-opacity:1"
         id="path846-9-1-8-8-8"
         cx="403.27164"
         cy="182.99664"
         r="2.9210021" />
      <path
         style="opacity:0.0325203;fill:none;stroke:#ffffff;stroke-width:0.194411px;stroke-linecap:butt;stroke-linejoin:miter;stroke-opacity:1"
         d="M -97.136237,105.40723 C 88.011,489.66363 56.444914,454.4553 88.011,489.66363 119.57709,524.87195 479.55189,466.5961 479.55189,466.5961"
         id="path15292" />
      <path
         style="opacity:0.0325203;fill:none;stroke:#ffffff;stroke-width:0.194411px;stroke-linecap:butt;stroke-linejoin:miter;stroke-opacity:1"
         d="M -52.475255,56.782786 C 132.67198,441.03918 101.10589,405.83085 132.67198,441.03918 164.23806,476.2475 524.21287,417.97165 524.21287,417.97165"
         id="path15292-1" />
      <path
         style="opacity:0.0325203;fill:none;stroke:#ffffff;stroke-width:0.194411px;stroke-linecap:butt;stroke-linejoin:miter;stroke-opacity:1"
         d="M 448.01232,61.764729 C 23.252404,100.64263 67.284724,83.403169 23.252404,100.64263 c -44.03232,17.23946 -115.49169,374.83069 -115.49169,374.83069"
         id="path15292-9" />
      <path
         style="opacity:0.0325203;fill:none;stroke:#ffffff;stroke-width:0.264583px;stroke-linecap:butt;stroke-linejoin:miter;stroke-opacity:1"
         d="m -78.103241,342.16261 c 139.608584,75.41721 235.559811,1.26952 352.540171,0.93497 64.59549,-0.18474 143.21144,102.55258 204.2832,70.11371"
         id="path15846"
         sodipodi:nodetypes="csc" />
      <path
         style="opacity:0.0304878;fill:none;stroke:#ffffff;stroke-width:0.264583px;stroke-linecap:butt;stroke-linejoin:miter;stroke-opacity:1"
         d="M -80.08137,547.79786 C 86.605898,367.27291 506.19678,243.3903 448.01232,61.764729"
         id="path16170"
         sodipodi:nodetypes="cc" />
      <path
         style="fill:none;fill-opacity:0;stroke:url(#linearGradient17078);stroke-width:0.264583px;stroke-linecap:butt;stroke-linejoin:miter;stroke-opacity:1"
         d="m -60.754143,502.39002 c 0,0 251.195013,115.66655 507.063423,3.50504"
         id="path16836" />
      <path
         style="mix-blend-mode:normal;fill:none;fill-opacity:0;stroke:url(#linearGradient18415);stroke-width:0.264583px;stroke-linecap:butt;stroke-linejoin:miter;stroke-opacity:1;filter:url(#filter18488)"
         d="m -60.75414,502.39002 c 0,0 251.19501,115.66656 507.06342,3.50504"
         id="path16836-1" />
      <g
         id="g22702"
         style="opacity:0.0589431;fill:#ffffff;fill-opacity:1">
        <rect
           style="fill:#ffffff;fill-opacity:1;fill-rule:evenodd;stroke:none;stroke-width:0.583184;stroke-miterlimit:4;stroke-dasharray:none;stroke-opacity:1"
           id="rect18802"
           width="1.7525226"
           height="11.683489"
           x="-104.7058"
           y="50.093479"
           transform="rotate(-45)"
           ry="0.87626129" />
        <rect
           style="fill:#ffffff;fill-opacity:1;fill-rule:evenodd;stroke:none;stroke-width:0.583184;stroke-miterlimit:4;stroke-dasharray:none;stroke-opacity:1"
           id="rect18802-5"
           width="1.7525226"
           height="11.683489"
           x="-61.776966"
           y="-114.63676"
           transform="rotate(-135)"
           ry="0.87626129" />
        <rect
           style="fill:#ffffff;fill-opacity:1;fill-rule:evenodd;stroke:none;stroke-width:0.583184;stroke-miterlimit:4;stroke-dasharray:none;stroke-opacity:1"
           id="rect18802-3"
           width="1.7525226"
           height="11.683489"
           x="-98.1577"
           y="56.641582"
           transform="rotate(-45)"
           ry="0.87626129" />
        <rect
           style="fill:#ffffff;fill-opacity:1;fill-rule:evenodd;stroke:none;stroke-width:0.583184;stroke-miterlimit:4;stroke-dasharray:none;stroke-opacity:1"
           id="rect18802-5-8"
           width="1.7525226"
           height="11.683489"
           x="-68.325073"
           y="-108.08866"
           transform="rotate(-135)"
           ry="0.87626129" />
        <rect
           style="fill:#ffffff;fill-opacity:1;fill-rule:evenodd;stroke:none;stroke-width:0.583184;stroke-miterlimit:4;stroke-dasharray:none;stroke-opacity:1"
           id="rect18802-4"
           width="1.7525226"
           height="11.683489"
           x="-91.609604"
           y="63.189678"
           transform="rotate(-45)"
           ry="0.87626129" />
        <rect
           style="fill:#ffffff;fill-opacity:1;fill-rule:evenodd;stroke:none;stroke-width:0.583184;stroke-miterlimit:4;stroke-dasharray:none;stroke-opacity:1"
           id="rect18802-5-9"
           width="1.7525226"
           height="11.683489"
           x="-74.873169"
           y="-101.54057"
           transform="rotate(-135)"
           ry="0.87626129" />
        <rect
           style="fill:#ffffff;fill-opacity:1;fill-rule:evenodd;stroke:none;stroke-width:0.583184;stroke-miterlimit:4;stroke-dasharray:none;stroke-opacity:1"
           id="rect18802-3-4"
           width="1.7525226"
           height="11.683489"
           x="-85.061501"
           y="69.737778"
           transform="rotate(-45)"
           ry="0.87626129" />
        <rect
           style="fill:#ffffff;fill-opacity:1;fill-rule:evenodd;stroke:none;stroke-width:0.583184;stroke-miterlimit:4;stroke-dasharray:none;stroke-opacity:1"
           id="rect18802-5-8-0"
           width="1.7525226"
           height="11.683489"
           x="-81.421265"
           y="-94.992462"
           transform="rotate(-135)"
           ry="0.87626129" />
      </g>
      <g
         id="g19415-1-9-4"
         transform="matrix(1.4967776,0,0,1.4967776,62.354674,-37.550213)"
         style="opacity:1">
        <path
           id="rect18802-3-4-1"
           style="opacity:1;fill:url(#linearGradient21455);fill-opacity:1;fill-rule:evenodd;stroke:none;stroke-width:0.583184;stroke-miterlimit:4;stroke-dasharray:none;stroke-opacity:1"
           d="m -42.518592,95.009732 c -0.223988,0 -0.448092,0.08593 -0.619726,0.257557 -0.343263,0.343264 -0.343263,0.895843 0,1.239107 l 6.402686,6.402684 -6.402686,6.40269 c -0.343263,0.34326 -0.343263,0.89584 0,1.2391 0.343266,0.34327 0.895844,0.34327 1.239108,0 l 7.02241,-7.02206 c 0.343265,-0.34327 0.343265,-0.89619 0,-1.23946 l -7.02241,-7.022061 c -0.171632,-0.171632 -0.395391,-0.257557 -0.619382,-0.257557 z" />
      </g>
      <circle
         style="opacity:0.0691057;fill:none;fill-opacity:1;fill-rule:evenodd;stroke:url(#linearGradient24471);stroke-width:0.321549;stroke-miterlimit:4;stroke-dasharray:none;stroke-opacity:1"
         id="path24015"
         cx="-8.397049"
         cy="134.48979"
         r="45.306358" />
      <text
         xml:space="preserve"
         style="font-style:normal;font-variant:normal;font-weight:normal;font-stretch:normal;font-size:6.35px;line-height:1.15;font-family:'Fira Code';-inkscape-font-specification:'Fira Code';letter-spacing:0px;word-spacing:0px;opacity:0.042683;fill:#000000;fill-opacity:1;stroke:none;stroke-width:0.264583"
         x="-51.955193"
         y="397.11774"
         id="text34734"><tspan
           sodipodi:role="line"
           style="font-style:normal;font-variant:normal;font-weight:normal;font-stretch:normal;font-size:6.35px;font-family:'Fira Code';-inkscape-font-specification:'Fira Code';opacity:0.0650407;fill:#ffffff;fill-opacity:1;stroke:none;stroke-width:0.264583"
           x="-51.955193"
           y="397.11774"
           id="tspan42510">interface Props {</tspan><tspan
           sodipodi:role="line"
           style="font-style:normal;font-variant:normal;font-weight:normal;font-stretch:normal;font-size:6.35px;font-family:'Fira Code';-inkscape-font-specification:'Fira Code';opacity:0.0650407;fill:#ffffff;fill-opacity:1;stroke:none;stroke-width:0.264583"
           x="-51.955193"
           y="404.42023"
           id="tspan46426">  isCool: true | 'yes'  </tspan><tspan
           sodipodi:role="line"
           style="font-style:normal;font-variant:normal;font-weight:normal;font-stretch:normal;font-size:6.35px;font-family:'Fira Code';-inkscape-font-specification:'Fira Code';opacity:0.0650407;fill:#ffffff;fill-opacity:1;stroke:none;stroke-width:0.264583"
           x="-51.955193"
           y="411.72275"
           id="tspan46428">}</tspan><tspan
           sodipodi:role="line"
           style="font-style:normal;font-variant:normal;font-weight:normal;font-stretch:normal;font-size:6.35px;font-family:'Fira Code';-inkscape-font-specification:'Fira Code';opacity:0.0650407;fill:#ffffff;fill-opacity:1;stroke:none;stroke-width:0.264583"
           x="-51.955193"
           y="419.02524"
           id="tspan69414" /><tspan
           sodipodi:role="line"
           style="font-style:normal;font-variant:normal;font-weight:normal;font-stretch:normal;font-size:6.35px;font-family:'Fira Code';-inkscape-font-specification:'Fira Code';opacity:0.0650407;fill:#ffffff;fill-opacity:1;stroke:none;stroke-width:0.264583"
           x="-51.955193"
           y="426.49127"
           id="tspan43128">export const ✨: FC&lt;Props&gt; = ({ isCool }) =&gt; {</tspan><tspan
           sodipodi:role="line"
           style="font-style:normal;font-variant:normal;font-weight:normal;font-stretch:normal;font-size:6.35px;font-family:'Fira Code';-inkscape-font-specification:'Fira Code';opacity:0.0650407;fill:#ffffff;fill-opacity:1;stroke:none;stroke-width:0.264583"
           x="-51.955193"
           y="433.79376"
           id="tspan64724">  const [count, setCount] = useState(0)</tspan><tspan
           sodipodi:role="line"
           style="font-style:normal;font-variant:normal;font-weight:normal;font-stretch:normal;font-size:6.35px;font-family:'Fira Code';-inkscape-font-specification:'Fira Code';opacity:0.0650407;fill:#ffffff;fill-opacity:1;stroke:none;stroke-width:0.264583"
           x="-51.955193"
           y="441.09628"
           id="tspan59852">  </tspan><tspan
           sodipodi:role="line"
           style="font-style:normal;font-variant:normal;font-weight:normal;font-stretch:normal;font-size:6.35px;font-family:'Fira Code';-inkscape-font-specification:'Fira Code';opacity:0.0650407;fill:#ffffff;fill-opacity:1;stroke:none;stroke-width:0.264583"
           x="-51.955193"
           y="448.39877"
           id="tspan64890">  useEffect(() =&gt; {</tspan><tspan
           sodipodi:role="line"
           style="font-style:normal;font-variant:normal;font-weight:normal;font-stretch:normal;font-size:6.35px;font-family:'Fira Code';-inkscape-font-specification:'Fira Code';opacity:0.0650407;fill:#ffffff;fill-opacity:1;stroke:none;stroke-width:0.264583"
           x="-51.955193"
           y="455.70126"
           id="tspan64892">    if(isCool) setCount(count =&gt; count + 1)</tspan><tspan
           sodipodi:role="line"
           style="font-style:normal;font-variant:normal;font-weight:normal;font-stretch:normal;font-size:6.35px;font-family:'Fira Code';-inkscape-font-specification:'Fira Code';opacity:0.0650407;fill:#ffffff;fill-opacity:1;stroke:none;stroke-width:0.264583"
           x="-51.955193"
           y="463.00378"
           id="tspan64894">  }, [count])</tspan><tspan
           sodipodi:role="line"
           style="font-style:normal;font-variant:normal;font-weight:normal;font-stretch:normal;font-size:6.35px;font-family:'Fira Code';-inkscape-font-specification:'Fira Code';opacity:0.0650407;fill:#ffffff;fill-opacity:1;stroke:none;stroke-width:0.264583"
           x="-51.955193"
           y="470.30627"
           id="tspan71496" /><tspan
           sodipodi:role="line"
           style="font-style:normal;font-variant:normal;font-weight:normal;font-stretch:normal;font-size:6.35px;font-family:'Fira Code';-inkscape-font-specification:'Fira Code';opacity:0.0650407;fill:#ffffff;fill-opacity:1;stroke:none;stroke-width:0.264583"
           x="-51.955193"
           y="477.60876"
           id="tspan71498">  return (</tspan><tspan
           sodipodi:role="line"
           style="font-style:normal;font-variant:normal;font-weight:normal;font-stretch:normal;font-size:6.35px;font-family:'Fira Code';-inkscape-font-specification:'Fira Code';opacity:0.0650407;fill:#ffffff;fill-opacity:1;stroke:none;stroke-width:0.264583"
           x="-51.955193"
           y="484.91129"
           id="tspan71500">    &lt;section&gt;</tspan><tspan
           sodipodi:role="line"
           style="font-style:normal;font-variant:normal;font-weight:normal;font-stretch:normal;font-size:6.35px;font-family:'Fira Code';-inkscape-font-specification:'Fira Code';opacity:0.0650407;fill:#ffffff;fill-opacity:1;stroke:none;stroke-width:0.264583"
           x="-51.955193"
           y="492.21378"
           id="tspan71504">      &lt;span&gt;{count}&lt;/span&gt;</tspan><tspan
           sodipodi:role="line"
           style="font-style:normal;font-variant:normal;font-weight:normal;font-stretch:normal;font-size:6.35px;font-family:'Fira Code';-inkscape-font-specification:'Fira Code';opacity:0.0650407;fill:#ffffff;fill-opacity:1;stroke:none;stroke-width:0.264583"
           x="-51.955193"
           y="499.51627"
           id="tspan71506">    &lt;/section&gt;</tspan><tspan
           sodipodi:role="line"
           style="font-style:normal;font-variant:normal;font-weight:normal;font-stretch:normal;font-size:6.35px;font-family:'Fira Code';-inkscape-font-specification:'Fira Code';opacity:0.0650407;fill:#ffffff;fill-opacity:1;stroke:none;stroke-width:0.264583"
           x="-51.955193"
           y="506.81879"
           id="tspan71502">  )</tspan><tspan
           sodipodi:role="line"
           style="font-style:normal;font-variant:normal;font-weight:normal;font-stretch:normal;font-size:6.35px;font-family:'Fira Code';-inkscape-font-specification:'Fira Code';opacity:0.0650407;fill:#ffffff;fill-opacity:1;stroke:none;stroke-width:0.264583"
           x="-51.955193"
           y="514.12128"
           id="tspan39414">}</tspan></text>
      <text
         xml:space="preserve"
         transform="matrix(0.26458333,0,0,0.26458333,152.94198,51.389948)"
         id="text25189-0"
         style="font-style:normal;font-weight:normal;font-size:24px;line-height:1.25;font-family:sans-serif;letter-spacing:0px;word-spacing:0px;white-space:pre;shape-inside:url(#rect25191-4);mix-blend-mode:normal;fill:#f42e2e;fill-opacity:1;stroke:none;filter:url(#filter31691)"><tspan
           x="-362.20312"
           y="1445.7319"
           id="tspan36915"><tspan
             style="font-family:'Fira Code';-inkscape-font-specification:'Fira Code'"
             id="tspan36913">useState</tspan></tspan></text>
      <text
         xml:space="preserve"
         transform="matrix(0.26458333,0,0,0.26458333,152.97909,51.391111)"
         id="text25189"
         style="font-style:normal;font-weight:normal;font-size:24px;line-height:1.25;font-family:sans-serif;letter-spacing:0px;word-spacing:0px;white-space:pre;shape-inside:url(#rect25191);fill:url(#linearGradient31989);fill-opacity:1;stroke:none"><tspan
           x="-362.20312"
           y="1445.7319"
           id="tspan36919"><tspan
             style="font-family:'Fira Code';-inkscape-font-specification:'Fira Code'"
             id="tspan36917">useState</tspan></tspan></text>
      <g
         id="g33815"
         style="opacity:0.0264228;fill:none;fill-opacity:1;stroke:url(#radialGradient34480);stroke-opacity:1"
         transform="translate(-153.91859,-97.951283)">
        <path
           style="fill:none;fill-opacity:1;stroke:url(#radialGradient34633);stroke-width:0.264583px;stroke-linecap:butt;stroke-linejoin:miter;stroke-opacity:1"
           d="m 254.11587,299.68149 c 39.43179,18.10942 -27.45617,45.27351 11.09932,64.84337"
           id="path32688"
           sodipodi:nodetypes="cc" />
        <path
           style="fill:none;fill-opacity:1;stroke:url(#radialGradient34635);stroke-width:0.264583px;stroke-linecap:butt;stroke-linejoin:miter;stroke-opacity:1"
           d="m 262.58242,299.68149 c 39.4318,18.10942 -27.45617,45.27351 11.09933,64.84337"
           id="path32688-3"
           sodipodi:nodetypes="cc" />
        <path
           style="fill:none;fill-opacity:1;stroke:url(#radialGradient34637);stroke-width:0.264583px;stroke-linecap:butt;stroke-linejoin:miter;stroke-opacity:1"
           d="m 271.54709,299.9747 c 39.43179,18.10942 -27.45617,45.27351 11.09932,64.84337"
           id="path32688-36"
           sodipodi:nodetypes="cc" />
        <path
           style="fill:none;fill-opacity:1;stroke:url(#radialGradient34639);stroke-width:0.264583px;stroke-linecap:butt;stroke-linejoin:miter;stroke-opacity:1"
           d="m 280.01364,299.9747 c 39.4318,18.10942 -27.45617,45.27351 11.09933,64.84337"
           id="path32688-3-9"
           sodipodi:nodetypes="cc" />
        <path
           style="fill:none;fill-opacity:1;stroke:url(#radialGradient34641);stroke-width:0.264583px;stroke-linecap:butt;stroke-linejoin:miter;stroke-opacity:1"
           d="m 288.48815,300.26679 c 39.43179,18.10942 -27.45617,45.27351 11.09932,64.84337"
           id="path32688-6"
           sodipodi:nodetypes="cc" />
        <path
           style="fill:none;fill-opacity:1;stroke:url(#radialGradient34643);stroke-width:0.264583px;stroke-linecap:butt;stroke-linejoin:miter;stroke-opacity:1"
           d="m 296.9547,300.26679 c 39.4318,18.10942 -27.45617,45.27351 11.09933,64.84337"
           id="path32688-3-3"
           sodipodi:nodetypes="cc" />
        <path
           style="fill:none;fill-opacity:1;stroke:url(#radialGradient34645);stroke-width:0.264583px;stroke-linecap:butt;stroke-linejoin:miter;stroke-opacity:1"
           d="m 249.35713,360.15742 c 18.10942,-39.43179 45.27351,27.45617 64.84337,-11.09932"
           id="path32688-7"
           sodipodi:nodetypes="cc" />
        <path
           style="fill:none;fill-opacity:1;stroke:url(#radialGradient34647);stroke-width:0.264583px;stroke-linecap:butt;stroke-linejoin:miter;stroke-opacity:1"
           d="m 249.35713,351.69087 c 18.10942,-39.4318 45.27351,27.45617 64.84337,-11.09933"
           id="path32688-3-4"
           sodipodi:nodetypes="cc" />
        <path
           style="fill:none;fill-opacity:1;stroke:url(#radialGradient34649);stroke-width:0.264583px;stroke-linecap:butt;stroke-linejoin:miter;stroke-opacity:1"
           d="m 249.65034,342.7262 c 18.10942,-39.43179 45.27351,27.45617 64.84337,-11.09932"
           id="path32688-36-5"
           sodipodi:nodetypes="cc" />
        <path
           style="fill:none;fill-opacity:1;stroke:url(#radialGradient34651);stroke-width:0.264583px;stroke-linecap:butt;stroke-linejoin:miter;stroke-opacity:1"
           d="m 249.65034,334.25965 c 18.10942,-39.4318 45.27351,27.45617 64.84337,-11.09933"
           id="path32688-3-9-9"
           sodipodi:nodetypes="cc" />
        <path
           style="fill:none;fill-opacity:1;stroke:url(#radialGradient34653);stroke-width:0.264583px;stroke-linecap:butt;stroke-linejoin:miter;stroke-opacity:1"
           d="m 249.94243,325.78514 c 18.10942,-39.43179 45.27351,27.45617 64.84337,-11.09932"
           id="path32688-6-6"
           sodipodi:nodetypes="cc" />
        <path
           style="fill:none;fill-opacity:1;stroke:url(#radialGradient34655);stroke-width:0.264583px;stroke-linecap:butt;stroke-linejoin:miter;stroke-opacity:1"
           d="m 249.94243,317.31859 c 18.10942,-39.4318 45.27351,27.45617 64.84337,-11.09933"
           id="path32688-3-3-3"
           sodipodi:nodetypes="cc" />
      </g>
      <path
         id="rect35236"
         style="fill:#ffffff;fill-opacity:1;fill-rule:evenodd;stroke:none;stroke-width:0.105689;stroke-opacity:1;opacity:0.03861789"
         d="m 38.951025,222.96601 v 0.15915 l 0.145733,-0.14573 -0.01349,-0.0135 z m 1.190122,0 -1.190122,1.1901 v 0.29197 l 1.468649,-1.46865 -0.01349,-0.0135 z m 1.322917,0 -2.513039,2.51302 v 0.29249 l 2.791566,-2.79156 -0.01402,-0.014 z m 1.322917,0 -3.835956,3.83593 v 0.2925 l 4.114483,-4.11448 -0.01402,-0.014 z m 1.322916,0 -5.158872,5.15885 v 0.2925 l 5.437399,-5.4374 -0.01402,-0.014 z m 1.322917,0 -6.481789,6.48177 v 0.29249 l 6.760316,-6.76031 -0.01402,-0.014 z m 1.322917,0 -7.804706,7.80468 v 0.2925 l 8.08273,-8.08323 -0.01402,-0.014 z m 1.322916,0 -9.127622,9.1276 v 0.2925 l 9.405646,-9.40615 -0.01402,-0.014 z m 1.322917,0 -10.450539,10.45001 v 0.29247 l 10.728563,-10.72906 -0.01349,-0.0135 z m 1.322387,0 -11.772926,11.77293 v 0.29197 l 12.05148,-12.05148 -0.01349,-0.0135 z m 1.322917,0 -13.095843,13.09585 v 0.13332 h 0.158644 l 13.070523,-13.07052 v -0.15865 z m 0.133324,1.1896 -12.039045,12.03957 h 0.291439 l 11.747606,-11.7471 z m 0,1.32291 -10.716128,10.71666 h 0.291439 l 10.424689,-10.42419 z m 0,1.32292 -9.393741,9.39374 h 0.291968 l 9.101773,-9.10127 z m 0,1.32292 -8.070824,8.07082 h 0.291968 l 7.778856,-7.77835 z m 0,1.32291 -6.747907,6.74791 h 0.292497 l 6.45541,-6.45544 z m 0,1.32292 -5.424991,5.42499 h 0.292497 l 5.132494,-5.13252 z m 0,1.32239 -4.102577,4.1026 h 0.292471 l 3.810106,-3.8101 z m 0,1.32292 -2.77966,2.77968 H 49.6925 l 2.487692,-2.48772 z m 0,1.32291 -1.456743,1.45677 h 0.291967 l 1.164776,-1.1648 z m 0,1.32292 -0.133827,0.13385 h 0.133827 z" />
      <path
         id="rect35236-5"
         style="fill:#ffffff;fill-opacity:1;fill-rule:evenodd;stroke:none;stroke-width:0.105689;stroke-opacity:1;opacity:0.03861789"
         d="m 52.180192,222.96498 v 0.15915 l 0.145733,-0.14573 -0.01349,-0.0135 z m 1.190122,0 -1.190122,1.1901 v 0.29197 l 1.468649,-1.46865 -0.01349,-0.0135 z m 1.322917,0 -2.513039,2.51302 v 0.29249 l 2.791566,-2.79156 -0.01402,-0.014 z m 1.322917,0 -3.835956,3.83593 v 0.2925 l 4.114483,-4.11448 -0.01402,-0.014 z m 1.322916,0 -5.158872,5.15885 v 0.2925 l 5.437399,-5.4374 -0.01402,-0.014 z m 1.322917,0 -6.481789,6.48177 v 0.29249 l 6.760316,-6.76031 -0.01402,-0.014 z m 1.322917,0 -7.804706,7.80468 v 0.2925 l 8.08273,-8.08323 -0.01402,-0.014 z m 1.322916,0 -9.127622,9.1276 v 0.2925 l 9.405646,-9.40615 -0.01402,-0.014 z m 1.322917,0 -10.450539,10.45001 v 0.29247 l 10.728563,-10.72906 -0.01349,-0.0135 z m 1.322387,0 -11.772926,11.77293 v 0.29197 l 12.05148,-12.05148 -0.01349,-0.0135 z m 1.322917,0 -13.095843,13.09585 v 0.13332 h 0.158644 l 13.070523,-13.07052 v -0.15865 z m 0.133324,1.1896 -12.039045,12.03957 h 0.291439 l 11.747606,-11.7471 z m 0,1.32291 -10.716128,10.71666 h 0.291439 l 10.424689,-10.42419 z m 0,1.32292 -9.393741,9.39374 h 0.291968 l 9.101773,-9.10127 z m 0,1.32292 -8.070824,8.07082 h 0.291968 l 7.778856,-7.77835 z m 0,1.32291 -6.747907,6.74791 h 0.292497 l 6.45541,-6.45544 z m 0,1.32292 -5.424991,5.42499 h 0.292497 l 5.132494,-5.13252 z m 0,1.32239 -4.102577,4.1026 h 0.292471 l 3.810106,-3.8101 z m 0,1.32292 -2.77966,2.77968 h 0.291968 l 2.487692,-2.48772 z m 0,1.32291 -1.456743,1.45677 h 0.291967 l 1.164776,-1.1648 z m 0,1.32292 -0.133827,0.13385 h 0.133827 z" />
      <path
         id="rect35236-9"
         style="fill:#ffffff;fill-opacity:1;fill-rule:evenodd;stroke:none;stroke-width:0.105689;stroke-opacity:1;opacity:0.03861789"
         d="m 65.409359,222.96448 v 0.15915 l 0.145733,-0.14573 -0.01349,-0.0135 z m 1.190122,0 -1.190122,1.1901 v 0.29197 l 1.468649,-1.46865 -0.01349,-0.0135 z m 1.322917,0 -2.513039,2.51302 v 0.29249 l 2.791566,-2.79156 -0.01402,-0.014 z m 1.322917,0 -3.835956,3.83593 v 0.2925 l 4.114483,-4.11448 -0.01402,-0.014 z m 1.322916,0 -5.158872,5.15885 v 0.2925 l 5.437399,-5.4374 -0.01402,-0.014 z m 1.322917,0 -6.481789,6.48177 v 0.29249 l 6.760316,-6.76031 -0.01402,-0.014 z m 1.322917,0 -7.804706,7.80468 v 0.2925 l 8.08273,-8.08323 -0.01402,-0.014 z m 1.322916,0 -9.127622,9.1276 v 0.2925 l 9.405646,-9.40615 -0.01402,-0.014 z m 1.322917,0 -10.450539,10.45001 v 0.29247 l 10.728563,-10.72906 -0.01349,-0.0135 z m 1.322387,0 -11.772926,11.77293 v 0.29197 l 12.05148,-12.05148 -0.01349,-0.0135 z m 1.322917,0 -13.095843,13.09585 v 0.13332 h 0.158644 l 13.070523,-13.07052 v -0.15865 z m 0.133324,1.1896 -12.039045,12.03957 h 0.291439 l 11.747606,-11.7471 z m 0,1.32291 -10.716128,10.71666 h 0.291439 l 10.424689,-10.42419 z m 0,1.32292 -9.393741,9.39374 h 0.291968 l 9.101773,-9.10127 z m 0,1.32292 -8.070824,8.07082 h 0.291968 l 7.778856,-7.77835 z m 0,1.32291 -6.747907,6.74791 h 0.292497 l 6.45541,-6.45544 z m 0,1.32292 -5.424991,5.42499 h 0.292497 l 5.132494,-5.13252 z m 0,1.32239 -4.102577,4.1026 h 0.292471 l 3.810106,-3.8101 z m 0,1.32292 -2.77966,2.77968 h 0.291968 l 2.487692,-2.48772 z m 0,1.32291 -1.456743,1.45677 h 0.291967 l 1.164776,-1.1648 z m 0,1.32292 -0.133827,0.13385 h 0.133827 z" />
      <path
         id="rect35236-4"
         style="fill:#ffffff;fill-opacity:1;fill-rule:evenodd;stroke:none;stroke-width:0.105689;stroke-opacity:1;opacity:0.03861789"
         d="m 78.638526,222.96395 v 0.15915 l 0.145733,-0.14573 -0.01349,-0.0135 z m 1.190122,0 -1.190122,1.1901 v 0.29197 l 1.468649,-1.46865 -0.01349,-0.0135 z m 1.322917,0 -2.513039,2.51302 v 0.29249 l 2.791566,-2.79156 -0.01402,-0.014 z m 1.322917,0 -3.835956,3.83593 v 0.2925 l 4.114483,-4.11448 -0.01402,-0.014 z m 1.322916,0 -5.158872,5.15885 v 0.2925 l 5.437399,-5.4374 -0.01402,-0.014 z m 1.322917,0 -6.481789,6.48177 v 0.29249 l 6.760316,-6.76031 -0.01402,-0.014 z m 1.322917,0 -7.804706,7.80468 v 0.2925 l 8.08273,-8.08323 -0.01402,-0.014 z m 1.322916,0 -9.127622,9.1276 v 0.2925 l 9.405646,-9.40615 -0.01402,-0.014 z m 1.322917,0 -10.450539,10.45001 v 0.29247 l 10.728563,-10.72906 -0.01349,-0.0135 z m 1.322387,0 -11.772926,11.77293 v 0.29197 l 12.05148,-12.05148 -0.01349,-0.0135 z m 1.322917,0 -13.095843,13.09585 v 0.13332 H 78.79717 L 91.867693,223.1226 v -0.15865 z m 0.133324,1.1896 -12.039045,12.03957 h 0.291439 l 11.747606,-11.7471 z m 0,1.32291 -10.716128,10.71666 h 0.291439 l 10.424689,-10.42419 z m 0,1.32292 -9.393741,9.39374 h 0.291968 l 9.101773,-9.10127 z m 0,1.32292 -8.070824,8.07082 h 0.291968 l 7.778856,-7.77835 z m 0,1.32291 -6.747907,6.74791 h 0.292497 l 6.45541,-6.45544 z m 0,1.32292 -5.424991,5.42499 h 0.292497 l 5.132494,-5.13252 z m 0,1.32239 -4.102577,4.1026 h 0.292471 l 3.810106,-3.8101 z m 0,1.32292 -2.77966,2.77968 h 0.291968 l 2.487692,-2.48772 z m 0,1.32291 -1.456743,1.45677 h 0.291967 l 1.164776,-1.1648 z m 0,1.32292 -0.133827,0.13385 h 0.133827 z" />
    </g>
    <g
       id="g10574"
       style="opacity:0.0345528"
       transform="matrix(0.6091979,0,0,0.6091979,171.35516,106.87283)">
      <rect
         style="opacity:1;fill:#ffffff;fill-opacity:1;fill-rule:evenodd;stroke:none;stroke-width:1.32292;stroke-miterlimit:4;stroke-dasharray:none;stroke-opacity:1"
         id="rect9081"
         width="41.768475"
         height="6.7180061"
         x="251.05327"
         y="-174.92752"
         transform="rotate(45)" />
      <g
         id="g10227"
         style="opacity:1">
        <rect
           style="opacity:1;fill:#ffffff;fill-opacity:1;fill-rule:evenodd;stroke:none;stroke-width:1.32292;stroke-miterlimit:4;stroke-dasharray:none;stroke-opacity:1"
           id="rect9081-3"
           width="41.768475"
           height="6.7180061"
           x="150.81937"
           y="268.57855"
           transform="rotate(-45)" />
      </g>
    </g>
  </g>
</svg>
